<svg width="20" height="15" viewBox="0 0 20 15" fill="none" xmlns="http://www.w3.org/2000/svg">
<path d="M16.885 6.12757C17.8431 6.34592 18.6874 6.90931 19.2566 7.71029C19.8259 8.51127 20.0805 9.49378 19.9717 10.4704C19.8629 11.447 19.3984 12.3495 18.6668 13.0055C17.9352 13.6616 16.9877 14.0254 16.005 14.0276H5.00504C3.76508 14.0288 2.5689 13.5693 1.6487 12.7382C0.728504 11.9071 0.149939 10.7637 0.0253254 9.53007C-0.0992882 8.29639 0.23894 7.06043 0.974349 6.0621C1.70976 5.06377 2.78988 4.37432 4.00504 4.12757V4.02757C4.00441 3.4987 4.1436 2.97905 4.40851 2.52131C4.67342 2.06356 5.05464 1.68398 5.51352 1.42104C5.9724 1.1581 6.49263 1.02114 7.0215 1.02404C7.55037 1.02695 8.06907 1.16961 8.52504 1.43757C9.22674 0.744232 10.1185 0.274907 11.0874 0.089121C12.0562 -0.0966648 13.0583 0.00945926 13.9667 0.394034C14.8751 0.778608 15.6489 1.42431 16.1898 2.24923C16.7307 3.07416 17.0145 4.04116 17.005 5.02757C17.005 5.40757 16.965 5.76757 16.885 6.12757Z" fill="white"/>
</svg>
