<svg width="18" height="20" viewBox="0 0 18 20" fill="none" xmlns="http://www.w3.org/2000/svg">
<path d="M9 1L17 5.61894V13.6713C17 14.0316 16.9051 14.3856 16.725 14.6977C16.5448 15.0097 16.2856 15.2689 15.9736 15.4491L10.0264 18.8835C9.71436 19.0637 9.36035 19.1585 9 19.1585C8.63965 19.1585 8.28564 19.0637 7.97357 18.8835L2.02643 15.4491C1.71436 15.2689 1.45522 15.0097 1.27504 14.6977C1.09487 14.3856 1.00001 14.0316 1 13.6713V5.61894L9 1Z" stroke="white" stroke-linecap="round" stroke-linejoin="round"/>
<path d="M8.99999 5.10571V10.2379M8.99999 10.2379L4.55554 12.8039M8.99999 10.2379L13.4444 12.8039" stroke="white" stroke-linecap="round" stroke-linejoin="round"/>
</svg>
