<svg width="16" height="15" viewBox="0 0 16 15" fill="none" xmlns="http://www.w3.org/2000/svg">
<path d="M15.7537 1.34727L14.6254 0.241395C14.3139 -0.080465 13.7666 -0.080465 13.4382 0.241395L5.89396 7.63592L8.20945 9.90545L15.7537 2.51092C16.0821 2.18906 16.0821 1.65263 15.7537 1.34727ZM4.20997 9.08017C3.54004 9.08017 2.89755 9.34101 2.42383 9.80532C1.95012 10.2696 1.68399 10.8994 1.68399 11.556C1.68399 12.6371 0.707275 13.2066 0 13.2066C0.774635 14.2134 2.10499 14.8571 3.36798 14.8571C4.26122 14.8571 5.11788 14.5093 5.7495 13.8903C6.38112 13.2712 6.73596 12.4315 6.73596 11.556C6.73596 10.8994 6.46983 10.2696 5.99611 9.80532C5.5224 9.34101 4.87991 9.08017 4.20997 9.08017Z" fill="white"/>
</svg>
