<svg width="16" height="17" viewBox="0 0 16 17" fill="none" xmlns="http://www.w3.org/2000/svg">
<path d="M8 0.000212841C7.26562 0.000212841 6.55729 0.0998222 5.875 0.299041C5.19271 0.49826 4.55469 0.783253 3.96094 1.15402C3.36719 1.52479 2.82812 1.9675 2.34375 2.48215C1.85938 2.99679 1.44271 3.57232 1.09375 4.20871C0.744792 4.8451 0.476562 5.523 0.289062 6.2424C0.101562 6.9618 0.00520833 7.71441 0 8.50021C0 9.28049 0.09375 10.0331 0.28125 10.758C0.46875 11.483 0.736979 12.1609 1.08594 12.7917C1.4349 13.4226 1.85156 13.9953 2.33594 14.51C2.82031 15.0246 3.36198 15.4673 3.96094 15.8381C4.5599 16.2089 5.19792 16.4939 5.875 16.6931C6.55208 16.8923 7.26042 16.9947 8 17.0002C8.89583 17.0002 9.75521 16.848 10.5781 16.5437C11.401 16.2393 12.1536 15.8132 12.8359 15.2653C13.5182 14.7175 14.1068 14.059 14.6016 13.2898C15.0964 12.5206 15.4635 11.6794 15.7031 10.7663L14.7422 10.4841C14.5339 11.2865 14.2135 12.0197 13.7812 12.6838C13.349 13.3479 12.8333 13.9234 12.2344 14.4104C11.6354 14.8973 10.9766 15.2709 10.2578 15.531C9.53906 15.7911 8.78646 15.9266 8 15.9377C7.35938 15.9377 6.74219 15.8492 6.14844 15.6721C5.55469 15.495 4.9974 15.246 4.47656 14.925C3.95573 14.6041 3.48177 14.2139 3.05469 13.7546C2.6276 13.2953 2.26302 12.7945 1.96094 12.2522C1.65885 11.7098 1.42188 11.1177 1.25 10.4758C1.07812 9.83387 0.994792 9.17534 1 8.50021C1 7.81955 1.08333 7.16379 1.25 6.53293C1.41667 5.90207 1.65104 5.30995 1.95312 4.75656C2.25521 4.20318 2.6224 3.69959 3.05469 3.24582C3.48698 2.79204 3.95833 2.40467 4.46875 2.08371C4.97917 1.76275 5.53646 1.51095 6.14062 1.32834C6.74479 1.14572 7.36458 1.05718 8 1.06271C8.67188 1.06271 9.32552 1.16232 9.96094 1.36154C10.5964 1.56076 11.1875 1.84575 11.7344 2.21652C12.2812 2.58729 12.7786 3.03276 13.2266 3.55295C13.6745 4.07313 14.0391 4.65972 14.3203 5.31271H12V6.37521H16V2.12521H15V4.39963C14.651 3.71896 14.2266 3.10747 13.7266 2.56515C13.2266 2.02284 12.6745 1.56353 12.0703 1.18722C11.4661 0.810922 10.8177 0.517628 10.125 0.307342C9.43229 0.0970553 8.72396 -0.00532101 8 0.000212841Z" fill="white"/>
</svg>
