<svg width="16" height="12" viewBox="0 0 16 12" fill="none" xmlns="http://www.w3.org/2000/svg">
<path d="M16 1.6V0.639201C16.0001 0.55523 15.9836 0.472064 15.9516 0.394465C15.9195 0.316866 15.8724 0.246359 15.813 0.186983C15.7536 0.127607 15.6831 0.0805277 15.6055 0.0484422C15.5279 0.0163567 15.4448 -0.00010479 15.3608 5.0193e-07H0.6408C0.556754 -0.000104621 0.473511 0.0163454 0.395822 0.0484113C0.318133 0.0804772 0.247521 0.127531 0.188018 0.186886C0.128514 0.246242 0.0812837 0.316736 0.0490236 0.394344C0.0167636 0.471952 0.000105493 0.555154 5.00672e-07 0.639201V1.6H1.6V3.2H5.00672e-07V4.8H1.6V6.4H5.00672e-07V8H1.6V9.6H5.00672e-07V10.5592C-0.000104791 10.6434 0.0163981 10.7268 0.048564 10.8045C0.08073 10.8823 0.127927 10.953 0.187452 11.0125C0.246976 11.0721 0.317659 11.1193 0.395452 11.1514C0.473245 11.1836 0.55662 11.2001 0.6408 11.2H15.3608C15.4448 11.1999 15.528 11.1832 15.6057 11.151C15.6833 11.1187 15.7538 11.0715 15.8131 11.012C15.8725 10.9525 15.9195 10.8819 15.9516 10.8042C15.9837 10.7265 16.0001 10.6432 16 10.5592V9.6H14.4V8H16V6.4H14.4V4.8H16V3.2H14.4V1.6H16ZM6.4 8V3.2L10.4 5.6L6.4 8Z" fill="white"/>
</svg>
